<?xml version="1.0" encoding="utf-8"?>
<svg viewBox="0 0 388 356" width="388" height="356" xmlns="http://www.w3.org/2000/svg">
  <path fill="#FFDFB3" opacity="1.000000" stroke="none" d=" M272.997314,321.844299 C264.285461,323.562622 255.617172,325.556030 246.853088,326.944702 C225.503983,330.327576 203.968597,332.021820 182.393341,330.838959 C167.598007,330.027771 152.867111,327.845612 138.144913,325.980286 C130.961227,325.070068 123.863228,323.483490 116.085312,321.791870 C114.255180,321.275238 113.066170,321.169769 111.877167,321.064270 C111.877167,321.064270 111.991806,321.049133 111.787872,320.803162 C110.382240,320.035461 109.195488,319.475586 107.976425,318.998260 C100.287437,315.987701 92.514053,313.174469 84.936752,309.906067 C82.042236,308.657562 77.822601,307.647583 79.733200,302.552673 C79.886696,302.143341 78.627510,301.112061 77.919525,300.489532 C75.932076,298.742004 73.804359,297.146881 71.888077,295.327240 C68.759209,292.356232 67.768463,289.285095 71.673569,286.928741 C69.270111,283.028839 66.829109,279.505798 64.870796,275.732300 C63.622288,273.326538 62.875660,270.672394 67.002007,269.564697 C67.959358,269.307709 68.801659,266.982025 68.915184,265.546417 C69.193718,262.024414 69.016502,258.466400 69.489838,254.923706 C74.113258,254.928375 78.271957,255.025497 82.425194,254.915909 C90.243690,254.709625 98.158684,253.980927 103.995163,260.929260 C104.416473,261.430786 105.349686,261.502380 106.970451,262.135376 C105.912506,260.318909 105.460930,259.303802 104.801651,258.448853 C98.517288,250.299545 95.559128,241.025223 95.012772,230.810471 C94.245644,216.468384 99.850525,204.665344 109.403152,194.059357 C112.903732,191.552246 115.936333,188.926773 119.334641,186.920898 C133.536591,178.538116 148.411102,177.987488 164.060913,183.744110 C180.806152,191.472748 190.324707,204.544815 194.238068,222.071426 C195.799667,212.984894 199.037888,204.873093 205.133911,198.637650 C210.827835,192.813461 217.729095,188.169601 224.495224,183.042419 C225.868515,182.904480 226.881149,182.841064 227.817307,182.539886 C245.637360,176.806900 261.580383,180.656570 276.115845,191.894806 C277.261139,192.780304 278.605133,193.408813 279.918396,194.497589 C295.911346,215.294708 298.014191,236.485489 283.410004,258.595306 C283.121613,259.031952 283.293579,259.772675 283.204193,261.022400 C284.851044,260.249451 286.321564,260.004883 287.058319,259.137268 C290.474396,255.114517 294.917694,254.773758 299.721924,254.889999 C306.521820,255.054489 313.329346,254.902908 320.133606,254.886398 C320.133606,254.886398 320.098785,254.954071 320.055542,255.390076 C319.686829,260.074799 319.361389,264.323486 319.017914,268.807739 C324.748505,269.417053 324.637695,272.833618 322.527008,276.863434 C320.712524,280.327789 318.615112,283.643951 316.606506,287.087860 C320.474396,291.688232 319.922577,292.655243 308.358154,302.480164 C308.026154,304.787170 307.702393,307.844116 306.210236,308.602661 C300.487488,311.511841 294.372101,313.641602 288.438599,316.145966 C284.905640,317.637085 281.438629,319.284363 277.941956,320.861420 C277.941956,320.861420 277.591125,321.020630 277.024719,320.991943 C275.304626,321.256989 274.150970,321.550659 272.997314,321.844299 M193.175446,294.695160 C189.027130,295.818939 184.878815,296.942749 179.889206,298.052826 C171.703720,298.052826 163.518234,298.052826 154.761429,298.052826 C158.895782,307.397736 165.735519,313.011902 175.491226,316.554871 C187.791565,319.750244 200.066467,320.853973 213.016418,316.074890 C221.310959,314.153961 226.804794,308.487488 231.572754,301.969788 C232.332657,300.931061 232.258621,299.282257 232.570129,297.915497 C231.175766,297.662323 229.774200,297.158569 228.388260,297.198425 C221.671234,297.391602 214.958374,297.730652 207.461014,297.884949 C202.921036,296.822296 198.381073,295.759644 193.175446,294.695160 M217.995438,261.265259 C217.317902,257.087555 214.265457,256.058502 210.711227,256.034485 C199.754684,255.960434 188.797272,256.025665 177.840317,255.994888 C173.566284,255.982895 171.068146,258.082397 170.081909,262.873047 C170.370255,263.813660 170.378311,265.029480 170.990067,265.652588 C177.490662,272.273956 183.937927,278.961792 190.730774,285.275269 C193.440964,287.794189 196.702377,286.728333 199.220154,284.269867 C204.923203,278.701111 210.651306,273.149109 216.112656,267.348724 C217.292267,266.095917 217.390564,263.825073 217.995438,261.265259 M131.302536,230.214996 C131.530502,231.350418 131.640396,232.525406 132.005646,233.614807 C134.334839,240.561859 141.787796,244.149139 148.912796,241.802734 C155.475311,239.641556 159.191284,232.210144 157.175339,225.278839 C155.225204,218.573853 148.240250,214.921204 141.134735,216.890732 C140.947571,223.994476 139.641953,225.227798 131.800461,225.527359 C131.624771,226.792557 131.444199,228.092819 131.302536,230.214996 M248.282150,216.899628 C245.605804,216.611343 242.929474,216.323044 240.179840,216.026855 C240.202026,223.968536 238.371170,225.694443 231.360458,225.233978 C228.582489,233.065903 233.302078,241.081131 241.362076,242.219604 C248.217575,243.187927 253.729248,240.027771 256.035767,233.806320 C258.458038,227.272629 256.061676,221.559967 248.282150,216.899628 M280.838257,262.703125 C280.923218,262.553497 281.008179,262.403870 281.093140,262.254272 C280.956604,262.319672 280.820068,262.385101 280.838257,262.703125 M108.492760,263.455231 C108.492760,263.455231 108.526482,263.523071 108.492760,263.455231 z"/>
  <path fill="#BFBFBF" opacity="1.000000" stroke="none" d=" M320.089294,254.485931 C313.329346,254.902908 306.521820,255.054489 299.721924,254.889999 C294.917694,254.773758 290.474396,255.114517 287.058319,259.137268 C286.321564,260.004883 284.851044,260.249451 283.204193,261.022400 C283.293579,259.772675 283.121613,259.031952 283.410004,258.595306 C298.014191,236.485489 295.911346,215.294708 280.085327,194.167526 C284.042847,190.272980 283.626556,187.229111 279.366943,185.033676 C271.605194,181.033218 263.995605,176.361343 255.757919,173.752365 C244.593887,170.216583 233.277802,171.699783 222.430603,177.023300 C223.044434,179.224548 223.571686,181.115387 224.098969,183.006226 C217.729095,188.169601 210.827835,192.813461 205.133911,198.637650 C199.037888,204.873093 195.799667,212.984894 194.238068,222.071426 C190.324707,204.544815 180.806152,191.472748 164.128448,183.406479 C165.862976,176.009796 165.842041,176.028290 158.373474,174.067245 C140.424728,169.354385 124.367195,173.696014 109.642426,184.262711 C103.755058,188.487564 103.767929,189.416122 109.103378,194.225967 C99.850525,204.665344 94.245644,216.468384 95.012772,230.810471 C95.559128,241.025223 98.517288,250.299545 104.801651,258.448853 C105.460930,259.303802 105.912506,260.318909 106.970451,262.135376 C105.349686,261.502380 104.416473,261.430786 103.995163,260.929260 C98.158684,253.980927 90.243690,254.709625 82.425194,254.915909 C78.271957,255.025497 74.113258,254.928375 69.465874,254.529877 C68.968742,253.077469 68.962769,252.019791 68.956795,250.962097 C69.979637,245.415970 71.401649,239.906219 71.911469,234.313324 C72.407150,228.875504 71.949303,223.352448 71.943184,217.866806 C71.932076,207.903473 71.168427,197.860443 72.179405,188.000427 C73.088516,179.133713 75.956543,170.467850 77.921738,161.093262 C77.915222,160.309174 77.947479,160.145203 78.335678,159.889069 C91.857544,153.462845 105.925575,151.227203 120.340508,151.168915 C165.643356,150.985687 210.947418,150.874939 256.250031,151.027069 C266.867889,151.062714 277.622833,151.412323 288.050720,153.177200 C295.654388,154.464081 302.824615,158.312180 310.188049,161.018509 C311.954773,168.331894 314.670563,175.568008 315.273865,182.976135 C316.268250,195.186447 316.274200,207.516678 315.992096,219.780151 C315.723236,231.466171 316.232056,242.938431 320.089294,254.485931 z"/>
  <path fill="#FEC701" opacity="1.000000" stroke="none" d=" M163.951721,33.886642 C163.625961,29.862129 165.795700,27.567377 170.094208,26.088127 C186.871445,26.092745 202.841888,26.198156 218.812317,26.303568 C222.093704,27.876379 224.145615,30.267147 224.015594,34.974682 C224.015244,48.300522 223.844635,60.769466 224.120773,73.228508 C224.185989,76.171082 225.109161,79.520935 226.750397,81.923218 C231.896942,89.456276 234.169479,97.558258 234.082947,106.644028 C234.001205,115.224701 231.026413,122.745590 226.602478,130.109390 C224.562317,130.442169 222.934891,130.938705 221.306976,130.940353 C201.551483,130.960464 181.795929,130.907669 161.973999,130.539093 C159.840424,125.920975 157.178223,121.817360 155.819595,117.319939 C152.012070,104.715904 153.635269,92.880737 161.932999,82.194519 C163.227448,80.527451 163.885880,77.948799 163.910355,75.781204 C164.068024,61.817974 163.967499,47.851830 163.951721,33.886642 M196.108978,81.993729 C191.916962,81.736023 187.724945,81.478325 183.603485,81.224960 C183.603485,85.038132 183.603485,87.938408 183.603485,91.226089 C189.000458,89.647240 191.015640,92.784653 192.759857,96.717178 C195.387009,102.640381 198.327179,108.423836 201.045700,114.307632 C204.503647,121.791756 205.800125,122.400002 214.604919,120.177994 C214.604919,117.292473 214.604919,114.365692 214.604919,111.438919 C214.193848,111.682846 213.782761,111.926781 213.371689,112.170715 C211.777222,110.544235 209.676956,109.179489 208.676346,107.245720 C204.475418,99.127136 200.603500,90.838295 196.108978,81.993729 M177.362045,119.137665 C177.845230,119.738632 178.258224,120.784195 178.822205,120.873199 C186.084641,122.019424 187.206024,121.389473 190.513855,114.696632 C194.591370,106.446457 194.177826,103.164024 188.195465,97.030090 C184.704239,104.202301 181.235153,111.328964 177.362045,119.137665 z"/>
  <path fill="#FE8E02" opacity="1.000000" stroke="none" d=" M162.040390,130.873840 C181.795929,130.907669 201.551483,130.960464 221.306976,130.940353 C222.934891,130.938705 224.562317,130.442169 226.984833,130.268784 C237.527542,130.556351 247.275391,130.750702 257.480591,130.963287 C270.290924,131.458160 282.634491,131.983444 294.232056,138.098022 C299.777100,142.767303 305.104156,147.178833 310.231537,151.811371 C313.132904,154.432724 314.144562,157.543945 311.000854,160.841400 C311.000854,160.841400 310.606689,160.986282 310.397369,161.002396 C302.824615,158.312180 295.654388,154.464081 288.050720,153.177200 C277.622833,151.412323 266.867889,151.062714 256.250031,151.027069 C210.947418,150.874939 165.643356,150.985687 120.340508,151.168915 C105.925575,151.227203 91.857544,153.462845 78.037483,159.727234 C74.746407,157.829941 74.346130,155.811905 76.909065,153.593369 C83.275177,148.082718 89.653206,142.585861 96.349297,136.912735 C107.939171,131.772720 119.927010,131.180710 132.441055,130.948792 C142.620911,130.936737 152.330643,130.905289 162.040390,130.873840 z"/>
  <path fill="#FFB702" opacity="1.000000" stroke="none" d=" M161.973999,130.539093 C152.330643,130.905289 142.620911,130.936737 132.449860,130.489517 C131.991547,128.514771 131.963654,127.017906 132.002304,125.522758 C132.428787,109.023537 130.160141,110.958984 117.962708,110.524887 C119.556000,102.212425 121.087967,94.307808 122.748184,86.430206 C123.358185,83.535789 124.271446,80.705276 125.151794,77.792870 C125.257210,77.740128 125.431389,77.901070 125.829613,77.910904 C127.144890,77.263206 128.061935,76.605667 128.986877,75.975777 C128.994781,76.003433 128.940674,75.983871 129.132385,75.904327 C129.571533,75.689903 129.774338,75.505821 130.236237,75.136200 C131.660339,74.381645 132.780670,73.763451 134.290253,73.098541 C137.989059,72.008354 141.315201,71.014183 144.604263,69.909622 C149.319534,68.326096 150.246124,65.937485 146.905258,62.336082 C142.209259,57.273865 137.024277,52.665283 132.048401,47.862701 C135.784317,46.498055 138.163055,43.549511 141.048920,41.051994 C144.781052,37.822090 150.468826,36.738972 155.435349,35.096855 C157.850479,34.298313 160.540100,34.329899 163.528595,33.936165 C163.967499,47.851830 164.068024,61.817974 163.910355,75.781204 C163.885880,77.948799 163.227448,80.527451 161.932999,82.194519 C153.635269,92.880737 152.012070,104.715904 155.819595,117.319939 C157.178223,121.817360 159.840424,125.920975 161.973999,130.539093 z"/>
  <path fill="#FFB702" opacity="1.000000" stroke="none" d=" M257.023254,130.945053 C247.275391,130.750702 237.527542,130.556351 227.397339,130.202591 C231.026413,122.745590 234.001205,115.224701 234.082947,106.644028 C234.169479,97.558258 231.896942,89.456276 226.750397,81.923218 C225.109161,79.520935 224.185989,76.171082 224.120773,73.228508 C223.844635,60.769466 224.015244,48.300522 224.035660,35.359337 C230.728760,36.113712 237.445908,37.182465 244.058823,38.704254 C245.457626,39.026146 246.874313,40.809368 247.585510,42.260906 C249.084167,45.319565 251.026825,47.532761 254.780365,48.392155 C250.412491,53.241230 245.605576,57.542870 241.251328,62.262177 C238.004807,65.780869 238.983185,68.588295 243.430023,69.972054 C247.217026,71.150490 251.033157,72.235237 255.072113,73.598328 C257.882080,75.144020 260.456329,76.452812 263.020325,78.185562 C263.399567,80.326973 263.795441,82.042984 264.177521,83.762077 C266.121124,92.507057 268.061157,101.252831 269.589355,110.015785 C267.226990,110.353836 265.263458,111.010384 263.331146,110.928703 C258.550934,110.726616 256.750458,112.915726 256.955933,117.525986 C257.154907,121.991135 257.014587,126.471420 257.023254,130.945053 z"/>
  <path fill="#FDA103" opacity="1.000000" stroke="none" d=" M125.046371,77.845612 C124.271446,80.705276 123.358185,83.535789 122.748184,86.430206 C121.087967,94.307808 119.556000,102.212425 117.507713,110.535522 C114.550224,110.969803 111.961327,110.555634 109.594543,111.102600 C107.401802,111.609344 104.418785,112.627518 103.569847,114.317635 C100.391106,120.646004 97.880348,127.317131 95.304131,133.931793 C94.980576,134.762558 95.758743,136.022415 96.026451,137.083450 C89.653206,142.585861 83.275177,148.082718 76.909065,153.593369 C74.346130,155.811905 74.746407,157.829941 77.681549,159.819397 C77.947479,160.145203 77.915222,160.309174 77.818695,160.715363 C71.723633,163.953201 68.677086,163.858902 66.681725,160.027817 C65.606140,157.962723 65.110397,155.384842 65.072159,153.026642 C64.904701,142.699844 64.386795,132.323883 65.139008,122.049431 C66.374443,105.174660 71.362938,89.418770 83.035896,76.618317 C86.996796,72.274849 91.922646,68.811340 96.786171,65.176079 C92.889183,74.837395 88.454117,84.202065 84.481583,93.758995 C83.746719,95.526894 84.133774,99.179039 85.332603,99.985786 C86.951836,101.075462 90.357834,101.108124 92.111832,100.081589 C96.343788,97.604813 100.061584,94.249535 104.299484,91.084488 C111.423637,86.562187 118.235008,82.203896 125.046371,77.845612 z"/>
  <path fill="#FDA103" opacity="1.000000" stroke="none" d=" M270.002441,109.998329 C268.061157,101.252831 266.121124,92.507057 264.177521,83.762077 C263.795441,82.042984 263.399567,80.326973 263.364441,78.289841 C270.800415,82.609604 277.881989,87.249069 285.158844,92.165573 C289.435791,95.221138 293.244446,98.602180 297.675354,100.610001 C302.171570,102.647423 304.773285,100.148125 303.990753,95.253471 C303.521820,92.320412 302.874481,89.324966 301.713379,86.611717 C299.000427,80.271957 295.929108,74.085564 293.002899,67.837051 C300.778778,72.747696 306.281952,79.728279 311.091370,87.408562 C318.774292,99.677483 322.588196,113.090897 322.950867,127.465981 C323.194427,137.119949 323.142578,146.788010 322.945251,156.444077 C322.818054,162.668732 318.044800,164.567215 311.344421,161.009521 C314.144562,157.543945 313.132904,154.432724 310.231537,151.811371 C305.104156,147.178833 299.777100,142.767303 294.237000,137.723160 C291.557007,130.678848 289.257355,124.142319 286.763885,117.680595 C284.760345,112.488518 281.160248,109.910202 275.285675,110.884247 C273.619354,111.160530 271.768616,110.324333 270.002441,109.998329 z"/>
  <path fill="#C1BFBD" opacity="1.000000" stroke="none" d=" M103.986710,91.248505 C100.061584,94.249535 96.343788,97.604813 92.111832,100.081589 C90.357834,101.108124 86.951836,101.075462 85.332603,99.985786 C84.133774,99.179039 83.746719,95.526894 84.481583,93.758995 C88.454117,84.202065 92.889183,74.837395 97.135094,65.018120 C103.843292,58.500549 110.584335,52.374756 117.317848,46.240685 C121.038254,42.851479 124.753708,42.732048 128.558792,46.131561 C129.377426,46.862938 130.391968,47.375038 131.682343,47.925423 C137.024277,52.665283 142.209259,57.273865 146.905258,62.336082 C150.246124,65.937485 149.319534,68.326096 144.604263,69.909622 C141.315201,71.014183 137.989059,72.008354 134.022369,72.906647 C130.887589,70.333817 128.526581,67.765686 125.867073,65.557007 C124.972282,64.813896 122.696312,64.301888 122.105957,64.840309 C114.025101,72.210243 106.443047,79.996323 103.986710,91.248505 z"/>
  <path fill="#C0BFBE" opacity="1.000000" stroke="none" d=" M292.874908,67.534454 C295.929108,74.085564 299.000427,80.271957 301.713379,86.611717 C302.874481,89.324966 303.521820,92.320412 303.990753,95.253471 C304.773285,100.148125 302.171570,102.647423 297.675354,100.610001 C293.244446,98.602180 289.435791,95.221138 285.111694,91.809990 C281.075165,84.793251 278.062408,77.744331 273.318420,72.168350 C264.423187,61.713142 263.201172,62.125397 254.836411,73.361435 C251.033157,72.235237 247.217026,71.150490 243.430023,69.972054 C238.983185,68.588295 238.004807,65.780869 241.251328,62.262177 C245.605576,57.542870 250.412491,53.241230 255.176422,48.450821 C263.659424,42.636620 264.930359,42.173759 272.463104,48.203247 C279.678528,53.978737 286.020874,60.844990 292.874908,67.534454 z"/>
  <path fill="#FFF0DA" opacity="1.000000" stroke="none" d=" M68.586754,251.149200 C68.962769,252.019791 68.968742,253.077469 68.998672,254.529007 C69.016502,258.466400 69.193718,262.024414 68.915184,265.546417 C68.801659,266.982025 67.959358,269.307709 67.002007,269.564697 C62.875660,270.672394 63.622288,273.326538 64.870796,275.732300 C66.829109,279.505798 69.270111,283.028839 71.673569,286.928741 C67.768463,289.285095 68.759209,292.356232 71.888077,295.327240 C73.804359,297.146881 75.932076,298.742004 77.919525,300.489532 C78.627510,301.112061 79.886696,302.143341 79.733200,302.552673 C77.822601,307.647583 82.042236,308.657562 84.936752,309.906067 C92.514053,313.174469 100.287437,315.987701 107.976425,318.998260 C109.195488,319.475586 110.382240,320.035461 111.792007,320.860809 C96.765465,319.096710 82.107162,315.060211 68.432693,307.936890 C67.104744,307.245087 66.592690,304.987091 65.701912,303.456116 C66.086205,303.241791 66.470497,303.027496 66.854790,302.813202 C63.391743,299.882080 59.798046,297.085907 56.545849,293.937012 C55.579376,293.001251 54.754532,290.215485 55.255688,289.738373 C59.110012,286.068878 55.291283,283.967224 53.872635,281.394775 C51.975220,277.954193 50.035797,274.536774 47.921707,270.765656 C50.832954,269.862762 52.656971,269.297089 55.014290,268.566010 C54.691338,265.154816 54.346424,261.465881 53.991516,257.777893 C53.723827,254.996216 54.946106,253.814240 57.756680,253.958313 C60.414623,254.094543 63.114983,254.211853 65.733925,253.864426 C66.657074,253.741943 67.394493,252.219528 68.586754,251.149200 z"/>
  <path fill="#FFF1DA" opacity="1.000000" stroke="none" d=" M278.364807,320.926727 C281.438629,319.284363 284.905640,317.637085 288.438599,316.145966 C294.372101,313.641602 300.487488,311.511841 306.210236,308.602661 C307.702393,307.844116 308.026154,304.787170 308.358154,302.480164 C319.922577,292.655243 320.474396,291.688232 316.606506,287.087860 C318.615112,283.643951 320.712524,280.327789 322.527008,276.863434 C324.637695,272.833618 324.748505,269.417053 319.017914,268.807739 C319.361389,264.323486 319.686829,260.074799 320.022278,255.371582 C323.860046,254.945419 327.688873,254.928818 331.515228,255.018402 C333.949432,255.075394 335.625671,255.263443 334.286987,258.783295 C333.176117,261.704346 333.462738,265.156952 333.114868,268.522980 C335.306915,269.287231 337.509552,270.055206 340.447845,271.079651 C336.953705,276.747650 333.713684,282.003448 330.306244,287.530823 C331.222931,288.029846 332.563782,288.759796 335.132355,290.158051 C330.547455,294.438812 326.279327,298.423828 323.287445,301.217255 C321.529968,304.399628 320.959686,307.225464 319.364502,308.037079 C306.570892,314.546783 292.945831,318.651306 278.364807,320.926727 z"/>
  <path fill="#FBE6A3" opacity="1.000000" stroke="none" d=" M218.825638,25.839821 C202.841888,26.198156 186.871445,26.092745 170.433685,25.932869 C170.319382,25.599443 170.673462,25.075199 171.025238,25.076765 C186.963272,25.147617 202.901108,25.264553 218.825638,25.839821 z"/>
  <path fill="#FFF0DA" opacity="1.000000" stroke="none" d=" M112.049042,321.405457 C113.066170,321.169769 114.255180,321.275238 115.719040,321.612854 C114.736244,321.812225 113.478584,321.779449 112.049042,321.405457 z"/>
  <path fill="#FFF1DA" opacity="1.000000" stroke="none" d=" M273.379913,321.921692 C274.150970,321.550659 275.304626,321.256989 276.832062,320.991516 C276.058075,321.346191 274.910278,321.672638 273.379913,321.921692 z"/>
  <path fill="#DABF9E" opacity="1.000000" stroke="none" d=" M174.935730,316.035065 C165.735519,313.011902 158.895782,307.397736 154.761429,298.052826 C163.518234,298.052826 171.703720,298.052826 180.348602,298.484558 C181.151047,306.219391 181.949799,307.005188 189.152649,306.978119 C190.777054,306.972015 192.401001,306.838837 194.475342,306.832764 C207.160690,307.283173 207.160690,307.283173 208.244049,298.018005 C214.958374,297.730652 221.671234,297.391602 228.388260,297.198425 C229.774200,297.158569 231.175766,297.662323 232.570129,297.915497 C232.258621,299.282257 232.332657,300.931061 231.572754,301.969788 C226.804794,308.487488 221.310959,314.153961 212.329224,315.827454 C199.358902,311.883850 187.122177,311.931549 174.935730,316.035065 z"/>
  <path fill="#D8BE9D" opacity="1.000000" stroke="none" d=" M170.118866,262.172058 C171.068146,258.082397 173.566284,255.982895 177.840317,255.994888 C188.797272,256.025665 199.754684,255.960434 210.711227,256.034485 C214.265457,256.058502 217.317902,257.087555 217.732117,261.849396 C211.001480,267.265717 204.700211,272.352173 197.954132,276.757568 C196.190536,277.909241 192.423889,277.915192 190.641708,276.778412 C183.571671,272.268768 176.923416,267.097900 170.118866,262.172058 z"/>
  <path fill="#080705" opacity="1.000000" stroke="none" d=" M131.283081,229.804047 C131.444199,228.092819 131.624771,226.792557 131.800461,225.527359 C139.641953,225.227798 140.947571,223.994476 141.134735,216.890732 C148.240250,214.921204 155.225204,218.573853 157.175339,225.278839 C159.191284,232.210144 155.475311,239.641556 148.912796,241.802734 C141.787796,244.149139 134.334839,240.561859 132.005646,233.614807 C131.640396,232.525406 131.530502,231.350418 131.283081,229.804047 z"/>
  <path fill="#080605" opacity="1.000000" stroke="none" d=" M248.658722,217.008743 C256.061676,221.559967 258.458038,227.272629 256.035767,233.806320 C253.729248,240.027771 248.217575,243.187927 241.362076,242.219604 C233.302078,241.081131 228.582489,233.065903 231.360458,225.233978 C238.371170,225.694443 240.202026,223.968536 240.179840,216.026855 C242.929474,216.323044 245.605804,216.611343 248.658722,217.008743 z"/>
  <path fill="#A7917E" opacity="1.000000" stroke="none" d=" M109.403152,194.059357 C103.767929,189.416122 103.755058,188.487564 109.642426,184.262711 C124.367195,173.696014 140.424728,169.354385 158.373474,174.067245 C165.842041,176.028290 165.862976,176.009796 163.771759,183.266006 C148.411102,177.987488 133.536591,178.538116 119.334641,186.920898 C115.936333,188.926773 112.903732,191.552246 109.403152,194.059357 z"/>
  <path fill="#A7917E" opacity="1.000000" stroke="none" d=" M224.495209,183.042404 C223.571686,181.115387 223.044434,179.224548 222.430603,177.023300 C233.277802,171.699783 244.593887,170.216583 255.757919,173.752365 C263.995605,176.361343 271.605194,181.033218 279.366943,185.033676 C283.626556,187.229111 284.042847,190.272980 280.023712,193.826691 C278.605133,193.408813 277.261139,192.780304 276.115845,191.894806 C261.580383,180.656570 245.637360,176.806900 227.817307,182.539886 C226.881149,182.841064 225.868515,182.904480 224.495209,183.042404 z"/>
  <path fill="#A9937F" opacity="1.000000" stroke="none" d=" M170.100388,262.522552 C176.923416,267.097900 183.571671,272.268768 190.641708,276.778412 C192.423889,277.915192 196.190536,277.909241 197.954132,276.757568 C204.700211,272.352173 211.001480,267.265717 217.727875,262.228333 C217.390564,263.825073 217.292267,266.095917 216.112656,267.348724 C210.651306,273.149109 204.923203,278.701111 199.220154,284.269867 C196.702377,286.728333 193.440964,287.794189 190.730774,285.275269 C183.937927,278.961792 177.490662,272.273956 170.990067,265.652588 C170.378311,265.029480 170.370255,263.813660 170.100388,262.522552 z"/>
  <path fill="#B49E88" opacity="1.000000" stroke="none" d=" M175.213470,316.294983 C187.122177,311.931549 199.358902,311.883850 211.956146,315.843872 C200.066467,320.853973 187.791565,319.750244 175.213470,316.294983 z"/>
  <path fill="#FEFDFC" opacity="1.000000" stroke="none" d=" M207.852539,297.951477 C207.160690,307.283173 207.160690,307.283173 194.467316,306.391724 C193.953079,302.153687 193.897079,298.425323 193.841095,294.696991 C198.381073,295.759644 202.921036,296.822296 207.852539,297.951477 z"/>
  <path fill="#FCF9F3" opacity="1.000000" stroke="none" d=" M193.508270,294.696075 C193.897079,298.425323 193.953079,302.153687 194.017120,306.323090 C192.401001,306.838837 190.777054,306.972015 189.152649,306.978119 C181.949799,307.005188 181.151047,306.219391 180.769257,298.491455 C184.878815,296.942749 189.027130,295.818939 193.508270,294.696075 z"/>
  <path fill="#BFBFBF" opacity="1.000000" stroke="none" d=" M280.760925,262.576843 C280.820068,262.385101 280.956604,262.319672 281.093140,262.254272 C281.008179,262.403870 280.923218,262.553497 280.760925,262.576843 z"/>
  <path fill="#BFBFBF" opacity="1.000000" stroke="none" d=" M108.509621,263.489136 C108.526482,263.523071 108.492760,263.455231 108.509621,263.489136 z"/>
  <path fill="#0E0A01" opacity="1.000000" stroke="none" d=" M196.360046,82.302765 C200.603500,90.838295 204.475418,99.127136 208.676346,107.245720 C209.676956,109.179489 211.777222,110.544235 213.371689,112.170715 C213.782761,111.926781 214.193848,111.682846 214.604919,111.438919 C214.604919,114.365692 214.604919,117.292473 214.604919,120.177994 C205.800125,122.400002 204.503647,121.791756 201.045700,114.307632 C198.327179,108.423836 195.387009,102.640381 192.759857,96.717178 C191.015640,92.784653 189.000458,89.647240 183.603485,91.226089 C183.603485,87.938408 183.603485,85.038132 183.603485,81.224960 C187.724945,81.478325 191.916962,81.736023 196.360046,82.302765 z"/>
  <path fill="#0D0901" opacity="1.000000" stroke="none" d=" M177.564056,118.796646 C181.235153,111.328964 184.704239,104.202301 188.195465,97.030090 C194.177826,103.164024 194.591370,106.446457 190.513855,114.696632 C187.206024,121.389473 186.084641,122.019424 178.822205,120.873199 C178.258224,120.784195 177.845230,119.738632 177.564056,118.796646 z"/>
  <path fill="#FFC701" opacity="1.000000" stroke="none" d=" M96.349297,136.912735 C95.758743,136.022415 94.980576,134.762558 95.304131,133.931793 C97.880348,127.317131 100.391106,120.646004 103.569847,114.317635 C104.418785,112.627518 107.401802,111.609344 109.594543,111.102600 C111.961327,110.555634 114.550224,110.969803 117.497223,110.954071 C130.160141,110.958984 132.428787,109.023537 132.002304,125.522758 C131.963654,127.017906 131.991547,128.514771 131.979736,130.470123 C119.927010,131.180710 107.939171,131.772720 96.349297,136.912735 z"/>
  <path fill="#FFC701" opacity="1.000000" stroke="none" d=" M269.589355,110.015785 C271.768616,110.324333 273.619354,111.160530 275.285675,110.884247 C281.160248,109.910202 284.760345,112.488518 286.763885,117.680595 C289.257355,124.142319 291.557007,130.678848 293.935425,137.557953 C282.634491,131.983444 270.290924,131.458160 257.480591,130.963287 C257.014587,126.471420 257.154907,121.991135 256.955933,117.525986 C256.750458,112.915726 258.550934,110.726616 263.331146,110.928703 C265.263458,111.010384 267.226990,110.353836 269.589355,110.015785 z"/>
  <path fill="#FDDDB1" opacity="1.000000" stroke="none" d=" M104.299484,91.084488 C106.443047,79.996323 114.025101,72.210243 122.105957,64.840309 C122.696312,64.301888 124.972282,64.813896 125.867073,65.557007 C128.526581,67.765686 130.887589,70.333817 133.633148,72.953354 C132.780670,73.763451 131.660339,74.381645 130.021118,75.166283 C129.242050,75.486778 129.054855,75.703827 128.940674,75.983871 C128.940674,75.983871 128.994781,76.003433 128.647308,76.025085 C127.343674,76.664841 126.387535,77.282959 125.431389,77.901070 C125.431389,77.901070 125.257210,77.740128 125.151794,77.792870 C118.235008,82.203896 111.423637,86.562187 104.299484,91.084488 z"/>
  <path fill="#FDA103" opacity="1.000000" stroke="none" d=" M125.829613,77.910904 C126.387535,77.282959 127.343674,76.664841 128.639404,75.997421 C128.061935,76.605667 127.144890,77.263206 125.829613,77.910904 z"/>
  <path fill="#FDA103" opacity="1.000000" stroke="none" d=" M129.132385,75.904327 C129.054855,75.703827 129.242050,75.486778 129.717377,75.302643 C129.774338,75.505821 129.571533,75.689903 129.132385,75.904327 z"/>
  <path fill="#FDDDB1" opacity="1.000000" stroke="none" d=" M255.072113,73.598328 C263.201172,62.125397 264.423187,61.713142 273.318420,72.168350 C278.062408,77.744331 281.075165,84.793251 284.916443,91.532959 C277.881989,87.249069 270.800415,82.609604 263.374725,77.865868 C260.456329,76.452812 257.882080,75.144020 255.072113,73.598328 z"/>
</svg>